<svg data-name="Layer 1" xmlns="http://www.w3.org/2000/svg" viewBox="0 0 626 626"><rect width="626" height="626" rx="141" ry="141" style="fill:#efd9a8"/><path d="M511.2 190.3c-5.9 0-10.6 4.4-10.6 9.9s4.7 10 10.6 10 10.5-4.5 10.5-10-4.7-10-10.5-10ZM467.5 135a25 25 0 0 1 15.7 6.4c3.9-2.7 8.3-3.6 12.4-3.2 5 .6 9.4 2.8 12.5 5.8a21.8 21.8 0 0 1 5.9 21l40.9 59c6 8.5 6.5 19.7.8 27.7-5.6 8.1-17.4 12.5-34 7.8l-44-12.3c7.7 12.6.5 25.9-11.7 32.4a22 22 0 0 1 6.8 18 22.7 22.7 0 0 1-11.6 17.4c3.1 6.5 3 14-.8 20.4a24 24 0 0 1-16.8 11.4 21.5 21.5 0 0 1-1.3 19.4 24.2 24.2 0 0 1-19.2 11.6c-2.1 7.7-8 12.7-15.2 16a73.2 73.2 0 0 0-2.6 13.8l-10 70.5 14 19.2c.8 1.5-.4 3.3-2.3 3.3h-31.5c-1.4 0-2.5-1-2.6-2.3l-10.7-117.5c-3.2 16.1-23.7 21.5-37.7 22-12.7.7-31.5-.5-39.8-9.1a24.9 24.9 0 0 1-37.4 0 24.5 24.5 0 0 1-37.1 0 31.7 31.7 0 0 1-26.3 9.7 34.3 34.3 0 0 1-23.1-10.2c-7 6.3-17.8 8.3-28.8 7a39.7 39.7 0 0 0-5.8 34.8l6 45.2 15 17.3c.4 1.6-.9 3.1-2.6 3h-33.8c-1.2 0-2.3-.7-2.5-1.9l-16-71.1a71.1 71.1 0 0 1 5-46.2C87.6 368.7 86.4 353 93 342c-6.1-3-10.7-8.2-12.3-14.7-1.9-7 0-14.3 4.8-19.8a22 22 0 0 1-7.8-18.9c.7-7.2 5-13.5 11.5-17.2A21.4 21.4 0 0 1 89 251a24 24 0 0 1 17.1-12.4 22 22 0 0 1 6.8-19.2 25 25 0 0 1 21.5-6.3 24.8 24.8 0 0 1 38.5-1.5 24.6 24.6 0 0 1 37.3 0 24.7 24.7 0 0 1 37.3 0 24.9 24.9 0 0 1 37.3 0 25 25 0 0 1 37.4 0 25 25 0 0 1 35.7-1.8 23 23 0 0 1 11.3-13.6 25.2 25.2 0 0 1 20.6-1.4 22.7 22.7 0 0 1 11.8-16c4.7-2.4 10-3.3 15-2.7-5.9-8-8.9-17.8-8.8-31.3 0-1.4 1.2-2.5 2.7-2.4 12 .8 24.8 1.6 34.6 9.7a22 22 0 0 1 22.5-17Z" style="fill:#352112"/></svg>
